<svg width="22" height="22" viewBox="0 0 22 22" fill="none" xmlns="http://www.w3.org/2000/svg">
<mask id="mask0_1_16218" style="mask-type:alpha" maskUnits="userSpaceOnUse" x="0" y="0" width="22" height="22">
<rect width="22" height="22" fill="#D9D9D9"/>
</mask>
<g mask="url(#mask0_1_16218)">
<path d="M10.175 17.418H11.7792V16.2722C12.5431 16.1347 13.2 15.8368 13.75 15.3785C14.3 14.9201 14.575 14.2403 14.575 13.3389C14.575 12.6972 14.3917 12.109 14.025 11.5743C13.6584 11.0396 12.925 10.5736 11.825 10.1764C10.9084 9.87083 10.2743 9.60347 9.92294 9.3743C9.57155 9.14513 9.39585 8.83194 9.39585 8.43472C9.39585 8.03749 9.53717 7.7243 9.81981 7.49513C10.1025 7.26597 10.5111 7.15138 11.0459 7.15138C11.5347 7.15138 11.9167 7.26979 12.1917 7.50659C12.4667 7.7434 12.6653 8.03749 12.7875 8.38888L14.2542 7.79305C14.0861 7.25833 13.7768 6.79236 13.3261 6.39513C12.8754 5.99791 12.375 5.77638 11.825 5.73055V4.58472H10.2209V5.73055C9.45697 5.89861 8.86113 6.23472 8.43335 6.73888C8.00558 7.24305 7.79169 7.80833 7.79169 8.43472C7.79169 9.15277 8.00176 9.73333 8.4219 10.1764C8.84204 10.6194 9.5028 11.0014 10.4042 11.3222C11.3667 11.6736 12.0351 11.9868 12.4094 12.2618C12.7837 12.5368 12.9709 12.8958 12.9709 13.3389C12.9709 13.8431 12.7913 14.2135 12.4323 14.4503C12.0733 14.6871 11.6417 14.8055 11.1375 14.8055C10.6334 14.8055 10.1865 14.649 9.7969 14.3358C9.40731 14.0226 9.12085 13.5528 8.93752 12.9264L7.42502 13.5222C7.63891 14.2555 7.9712 14.8476 8.4219 15.2983C8.87259 15.749 9.45697 16.0583 10.175 16.2264V17.418ZM11 20.168C9.73197 20.168 8.5403 19.9274 7.42502 19.4462C6.30974 18.9649 5.3396 18.3118 4.5146 17.4868C3.6896 16.6618 3.03648 15.6917 2.55523 14.5764C2.07398 13.4611 1.83335 12.2694 1.83335 11.0014C1.83335 9.73333 2.07398 8.54166 2.55523 7.42638C3.03648 6.31111 3.6896 5.34097 4.5146 4.51597C5.3396 3.69097 6.30974 3.03784 7.42502 2.55659C8.5403 2.07534 9.73197 1.83472 11 1.83472C12.2681 1.83472 13.4597 2.07534 14.575 2.55659C15.6903 3.03784 16.6604 3.69097 17.4854 4.51597C18.3104 5.34097 18.9636 6.31111 19.4448 7.42638C19.9261 8.54166 20.1667 9.73333 20.1667 11.0014C20.1667 12.2694 19.9261 13.4611 19.4448 14.5764C18.9636 15.6917 18.3104 16.6618 17.4854 17.4868C16.6604 18.3118 15.6903 18.9649 14.575 19.4462C13.4597 19.9274 12.2681 20.168 11 20.168ZM11 18.3347C13.0472 18.3347 14.7813 17.6243 16.2021 16.2035C17.6229 14.7826 18.3334 13.0486 18.3334 11.0014C18.3334 8.95416 17.6229 7.22013 16.2021 5.7993C14.7813 4.37847 13.0472 3.66805 11 3.66805C8.9528 3.66805 7.21877 4.37847 5.79794 5.7993C4.3771 7.22013 3.66669 8.95416 3.66669 11.0014C3.66669 13.0486 4.3771 14.7826 5.79794 16.2035C7.21877 17.6243 8.9528 18.3347 11 18.3347Z" fill="#B4B4B4"/>
</g>
</svg>
