<svg width="22" height="22" viewBox="0 0 22 22" fill="none" xmlns="http://www.w3.org/2000/svg">
<mask id="mask0_1_16223" style="mask-type:alpha" maskUnits="userSpaceOnUse" x="0" y="0" width="22" height="22">
<rect width="22" height="22" fill="#D9D9D9"/>
</mask>
<g mask="url(#mask0_1_16223)">
<path d="M14.025 15.3097L15.3083 14.0264L11.9167 10.6347V6.41805H10.0833V11.3681L14.025 15.3097ZM11 20.168C9.73194 20.168 8.54027 19.9274 7.42499 19.4462C6.30972 18.9649 5.33958 18.3118 4.51458 17.4868C3.68958 16.6618 3.03645 15.6917 2.5552 14.5764C2.07395 13.4611 1.83333 12.2694 1.83333 11.0014C1.83333 9.73333 2.07395 8.54166 2.5552 7.42638C3.03645 6.31111 3.68958 5.34097 4.51458 4.51597C5.33958 3.69097 6.30972 3.03784 7.42499 2.55659C8.54027 2.07534 9.73194 1.83472 11 1.83472C12.2681 1.83472 13.4597 2.07534 14.575 2.55659C15.6903 3.03784 16.6604 3.69097 17.4854 4.51597C18.3104 5.34097 18.9635 6.31111 19.4448 7.42638C19.926 8.54166 20.1667 9.73333 20.1667 11.0014C20.1667 12.2694 19.926 13.4611 19.4448 14.5764C18.9635 15.6917 18.3104 16.6618 17.4854 17.4868C16.6604 18.3118 15.6903 18.9649 14.575 19.4462C13.4597 19.9274 12.2681 20.168 11 20.168ZM11 18.3347C13.0319 18.3347 14.7621 17.6205 16.1906 16.192C17.6191 14.7635 18.3333 13.0333 18.3333 11.0014C18.3333 8.96944 17.6191 7.23923 16.1906 5.81076C14.7621 4.38229 13.0319 3.66805 11 3.66805C8.96805 3.66805 7.23784 4.38229 5.80937 5.81076C4.3809 7.23923 3.66666 8.96944 3.66666 11.0014C3.66666 13.0333 4.3809 14.7635 5.80937 16.192C7.23784 17.6205 8.96805 18.3347 11 18.3347Z" fill="#B4B4B4"/>
</g>
</svg>
