<svg width="29" height="28" viewBox="0 0 29 28" fill="none" xmlns="http://www.w3.org/2000/svg">
<mask id="mask0_62_577" style="mask-type:alpha" maskUnits="userSpaceOnUse" x="0" y="0" width="29" height="28">
<rect x="0.75" width="28" height="28" fill="#D9D9D9"/>
</mask>
<g mask="url(#mask0_62_577)">
<path d="M7.74996 25.6667C7.10829 25.6667 6.55899 25.4382 6.10204 24.9813C5.6451 24.5243 5.41663 23.975 5.41663 23.3334V9.33337C5.41663 8.69171 5.6451 8.1424 6.10204 7.68546C6.55899 7.22851 7.10829 7.00004 7.74996 7.00004H10.0833C10.0833 5.71671 10.5402 4.6181 11.4541 3.70421C12.368 2.79032 13.4666 2.33337 14.75 2.33337C16.0333 2.33337 17.1319 2.79032 18.0458 3.70421C18.9597 4.6181 19.4166 5.71671 19.4166 7.00004H21.75C22.3916 7.00004 22.9409 7.22851 23.3979 7.68546C23.8548 8.1424 24.0833 8.69171 24.0833 9.33337V23.3334C24.0833 23.975 23.8548 24.5243 23.3979 24.9813C22.9409 25.4382 22.3916 25.6667 21.75 25.6667H7.74996ZM7.74996 23.3334H21.75V9.33337H19.4166V11.6667C19.4166 11.9973 19.3048 12.2743 19.0812 12.498C18.8576 12.7216 18.5805 12.8334 18.25 12.8334C17.9194 12.8334 17.6423 12.7216 17.4187 12.498C17.1951 12.2743 17.0833 11.9973 17.0833 11.6667V9.33337H12.4166V11.6667C12.4166 11.9973 12.3048 12.2743 12.0812 12.498C11.8576 12.7216 11.5805 12.8334 11.25 12.8334C10.9194 12.8334 10.6423 12.7216 10.4187 12.498C10.1951 12.2743 10.0833 11.9973 10.0833 11.6667V9.33337H7.74996V23.3334ZM12.4166 7.00004H17.0833C17.0833 6.35837 16.8548 5.80907 16.3979 5.35212C15.9409 4.89518 15.3916 4.66671 14.75 4.66671C14.1083 4.66671 13.559 4.89518 13.102 5.35212C12.6451 5.80907 12.4166 6.35837 12.4166 7.00004Z" fill="#888"/>
</g>
</svg>
