<svg width="18" height="18" viewBox="0 0 18 18" fill="none" xmlns="http://www.w3.org/2000/svg">
<mask id="mask0_62_251" style="mask-type:alpha" maskUnits="userSpaceOnUse" x="0" y="0" width="18" height="18">
<rect width="18" height="18" fill="#D9D9D9"/>
</mask>
<g mask="url(#mask0_62_251)">
<path d="M8.99927 8.99536C8.17427 8.99536 7.46802 8.70161 6.88052 8.11411C6.29302 7.52661 5.99927 6.82036 5.99927 5.99536C5.99927 5.17036 6.29302 4.46411 6.88052 3.87661C7.46802 3.28911 8.17427 2.99536 8.99927 2.99536C9.82427 2.99536 10.5305 3.28911 11.118 3.87661C11.7055 4.46411 11.9993 5.17036 11.9993 5.99536C11.9993 6.82036 11.7055 7.52661 11.118 8.11411C10.5305 8.70161 9.82427 8.99536 8.99927 8.99536ZM2.99927 14.9954V12.8954C2.99927 12.4704 3.10864 12.0797 3.32739 11.7235C3.54614 11.3672 3.83677 11.0954 4.19927 10.9079C4.97427 10.5204 5.76177 10.2297 6.56177 10.036C7.36177 9.84224 8.17427 9.74536 8.99927 9.74536C9.82427 9.74536 10.6368 9.84224 11.4368 10.036C12.2368 10.2297 13.0243 10.5204 13.7993 10.9079C14.1618 11.0954 14.4524 11.3672 14.6711 11.7235C14.8899 12.0797 14.9993 12.4704 14.9993 12.8954V14.9954H2.99927ZM4.49927 13.4954H13.4993V12.8954C13.4993 12.7579 13.4649 12.6329 13.3961 12.5204C13.3274 12.4079 13.2368 12.3204 13.1243 12.2579C12.4493 11.9204 11.768 11.6672 11.0805 11.4985C10.393 11.3297 9.69927 11.2454 8.99927 11.2454C8.29927 11.2454 7.60552 11.3297 6.91802 11.4985C6.23052 11.6672 5.54927 11.9204 4.87427 12.2579C4.76177 12.3204 4.67114 12.4079 4.60239 12.5204C4.53364 12.6329 4.49927 12.7579 4.49927 12.8954V13.4954ZM8.99927 7.49536C9.41177 7.49536 9.76489 7.34849 10.0586 7.05474C10.3524 6.76099 10.4993 6.40786 10.4993 5.99536C10.4993 5.58286 10.3524 5.22974 10.0586 4.93599C9.76489 4.64224 9.41177 4.49536 8.99927 4.49536C8.58677 4.49536 8.23364 4.64224 7.93989 4.93599C7.64614 5.22974 7.49927 5.58286 7.49927 5.99536C7.49927 6.40786 7.64614 6.76099 7.93989 7.05474C8.23364 7.34849 8.58677 7.49536 8.99927 7.49536Z" fill="#B4B4B4"/>
</g>
</svg>
