<svg width="22" height="22" viewBox="0 0 22 22" fill="none" xmlns="http://www.w3.org/2000/svg">
<mask id="mask0_1_16228" style="mask-type:alpha" maskUnits="userSpaceOnUse" x="0" y="0" width="22" height="22">
<rect width="22" height="22" fill="#D9D9D9"/>
</mask>
<g mask="url(#mask0_1_16228)">
<path d="M4.58331 19.25V12.8333C4.58331 12.3292 4.76283 11.8976 5.12185 11.5385C5.48088 11.1795 5.91248 11 6.41665 11H7.33331V9.16667H6.41665C5.91248 9.16667 5.48088 8.98715 5.12185 8.62813C4.76283 8.2691 4.58331 7.8375 4.58331 7.33333V4.58333C4.58331 4.07917 4.76283 3.64757 5.12185 3.28854C5.48088 2.92951 5.91248 2.75 6.41665 2.75H15.5833C16.0875 2.75 16.5191 2.92951 16.8781 3.28854C17.2371 3.64757 17.4166 4.07917 17.4166 4.58333V7.33333C17.4166 7.8375 17.2371 8.2691 16.8781 8.62813C16.5191 8.98715 16.0875 9.16667 15.5833 9.16667H14.6666V11H15.5833C16.0875 11 16.5191 11.1795 16.8781 11.5385C17.2371 11.8976 17.4166 12.3292 17.4166 12.8333V19.25H15.5833V16.5H6.41665V19.25H4.58331ZM6.41665 7.33333H15.5833V4.58333H6.41665V7.33333ZM9.16665 11H12.8333V9.16667H9.16665V11ZM6.41665 14.6667H15.5833V12.8333H6.41665V14.6667Z" fill="#B4B4B4"/>
</g>
</svg>
