<svg width="24" height="24" viewBox="0 0 24 24" fill="none" xmlns="http://www.w3.org/2000/svg">
<path d="M5.91666 7.33337C5.27499 7.33337 4.72569 7.1049 4.26874 6.64796C3.8118 6.19101 3.58333 5.64171 3.58333 5.00004V2.66671C3.58333 2.02504 3.8118 1.47574 4.26874 1.01879C4.72569 0.561846 5.27499 0.333374 5.91666 0.333374H17.5833C18.225 0.333374 18.7743 0.561846 19.2312 1.01879C19.6882 1.47574 19.9167 2.02504 19.9167 2.66671V5.00004C19.9167 5.64171 19.6882 6.19101 19.2312 6.64796C18.7743 7.1049 18.225 7.33337 17.5833 7.33337H5.91666ZM5.91666 5.00004H17.5833V2.66671H5.91666V5.00004ZM2.41666 23.6667C1.77499 23.6667 1.22569 23.4382 0.768745 22.9813C0.3118 22.5243 0.0833282 21.975 0.0833282 21.3334V20.1667H23.4167V21.3334C23.4167 21.975 23.1882 22.5243 22.7312 22.9813C22.2743 23.4382 21.725 23.6667 21.0833 23.6667H2.41666ZM0.0833282 19L4.1375 9.87087C4.33194 9.4431 4.62361 9.10768 5.01249 8.86462C5.40138 8.62157 5.81944 8.50004 6.26666 8.50004H17.2333C17.6805 8.50004 18.0986 8.62157 18.4875 8.86462C18.8764 9.10768 19.168 9.4431 19.3625 9.87087L23.4167 19H0.0833282ZM7.66666 16.6667H8.83333C8.98888 16.6667 9.12499 16.6084 9.24166 16.4917C9.35833 16.375 9.41666 16.2389 9.41666 16.0834C9.41666 15.9278 9.35833 15.7917 9.24166 15.675C9.12499 15.5584 8.98888 15.5 8.83333 15.5H7.66666C7.51111 15.5 7.37499 15.5584 7.25833 15.675C7.14166 15.7917 7.08333 15.9278 7.08333 16.0834C7.08333 16.2389 7.14166 16.375 7.25833 16.4917C7.37499 16.6084 7.51111 16.6667 7.66666 16.6667ZM7.66666 14.3334H8.83333C8.98888 14.3334 9.12499 14.275 9.24166 14.1584C9.35833 14.0417 9.41666 13.9056 9.41666 13.75C9.41666 13.5945 9.35833 13.4584 9.24166 13.3417C9.12499 13.225 8.98888 13.1667 8.83333 13.1667H7.66666C7.51111 13.1667 7.37499 13.225 7.25833 13.3417C7.14166 13.4584 7.08333 13.5945 7.08333 13.75C7.08333 13.9056 7.14166 14.0417 7.25833 14.1584C7.37499 14.275 7.51111 14.3334 7.66666 14.3334ZM7.66666 12H8.83333C8.98888 12 9.12499 11.9417 9.24166 11.825C9.35833 11.7084 9.41666 11.5723 9.41666 11.4167C9.41666 11.2612 9.35833 11.125 9.24166 11.0084C9.12499 10.8917 8.98888 10.8334 8.83333 10.8334H7.66666C7.51111 10.8334 7.37499 10.8917 7.25833 11.0084C7.14166 11.125 7.08333 11.2612 7.08333 11.4167C7.08333 11.5723 7.14166 11.7084 7.25833 11.825C7.37499 11.9417 7.51111 12 7.66666 12ZM11.1667 16.6667H12.3333C12.4889 16.6667 12.625 16.6084 12.7417 16.4917C12.8583 16.375 12.9167 16.2389 12.9167 16.0834C12.9167 15.9278 12.8583 15.7917 12.7417 15.675C12.625 15.5584 12.4889 15.5 12.3333 15.5H11.1667C11.0111 15.5 10.875 15.5584 10.7583 15.675C10.6417 15.7917 10.5833 15.9278 10.5833 16.0834C10.5833 16.2389 10.6417 16.375 10.7583 16.4917C10.875 16.6084 11.0111 16.6667 11.1667 16.6667ZM11.1667 14.3334H12.3333C12.4889 14.3334 12.625 14.275 12.7417 14.1584C12.8583 14.0417 12.9167 13.9056 12.9167 13.75C12.9167 13.5945 12.8583 13.4584 12.7417 13.3417C12.625 13.225 12.4889 13.1667 12.3333 13.1667H11.1667C11.0111 13.1667 10.875 13.225 10.7583 13.3417C10.6417 13.4584 10.5833 13.5945 10.5833 13.75C10.5833 13.9056 10.6417 14.0417 10.7583 14.1584C10.875 14.275 11.0111 14.3334 11.1667 14.3334ZM11.1667 12H12.3333C12.4889 12 12.625 11.9417 12.7417 11.825C12.8583 11.7084 12.9167 11.5723 12.9167 11.4167C12.9167 11.2612 12.8583 11.125 12.7417 11.0084C12.625 10.8917 12.4889 10.8334 12.3333 10.8334H11.1667C11.0111 10.8334 10.875 10.8917 10.7583 11.0084C10.6417 11.125 10.5833 11.2612 10.5833 11.4167C10.5833 11.5723 10.6417 11.7084 10.7583 11.825C10.875 11.9417 11.0111 12 11.1667 12ZM14.6667 16.6667H15.8333C15.9889 16.6667 16.125 16.6084 16.2417 16.4917C16.3583 16.375 16.4167 16.2389 16.4167 16.0834C16.4167 15.9278 16.3583 15.7917 16.2417 15.675C16.125 15.5584 15.9889 15.5 15.8333 15.5H14.6667C14.5111 15.5 14.375 15.5584 14.2583 15.675C14.1417 15.7917 14.0833 15.9278 14.0833 16.0834C14.0833 16.2389 14.1417 16.375 14.2583 16.4917C14.375 16.6084 14.5111 16.6667 14.6667 16.6667ZM14.6667 14.3334H15.8333C15.9889 14.3334 16.125 14.275 16.2417 14.1584C16.3583 14.0417 16.4167 13.9056 16.4167 13.75C16.4167 13.5945 16.3583 13.4584 16.2417 13.3417C16.125 13.225 15.9889 13.1667 15.8333 13.1667H14.6667C14.5111 13.1667 14.375 13.225 14.2583 13.3417C14.1417 13.4584 14.0833 13.5945 14.0833 13.75C14.0833 13.9056 14.1417 14.0417 14.2583 14.1584C14.375 14.275 14.5111 14.3334 14.6667 14.3334ZM14.6667 12H15.8333C15.9889 12 16.125 11.9417 16.2417 11.825C16.3583 11.7084 16.4167 11.5723 16.4167 11.4167C16.4167 11.2612 16.3583 11.125 16.2417 11.0084C16.125 10.8917 15.9889 10.8334 15.8333 10.8334H14.6667C14.5111 10.8334 14.375 10.8917 14.2583 11.0084C14.1417 11.125 14.0833 11.2612 14.0833 11.4167C14.0833 11.5723 14.1417 11.7084 14.2583 11.825C14.375 11.9417 14.5111 12 14.6667 12Z" fill="#888"/>
</svg>
