<svg width="29" height="28" viewBox="0 0 29 28" fill="none" xmlns="http://www.w3.org/2000/svg">
<mask id="mask0_62_583" style="mask-type:alpha" maskUnits="userSpaceOnUse" x="0" y="0" width="29" height="28">
<rect x="0.25" width="28" height="28" fill="#D9D9D9"/>
</mask>
<g mask="url(#mask0_62_583)">
<path d="M11.0417 25.6667L10.575 21.9334C10.3222 21.8362 10.0841 21.7195 9.86044 21.5834C9.63683 21.4473 9.41808 21.3014 9.20419 21.1459L5.73336 22.6042L2.52502 17.0625L5.52919 14.7875C5.50975 14.6514 5.50002 14.5202 5.50002 14.3938V13.6063C5.50002 13.4799 5.50975 13.3487 5.52919 13.2125L2.52502 10.9375L5.73336 5.39587L9.20419 6.85421C9.41808 6.69865 9.64169 6.55282 9.87502 6.41671C10.1084 6.2806 10.3417 6.16393 10.575 6.06671L11.0417 2.33337H17.4584L17.925 6.06671C18.1778 6.16393 18.416 6.2806 18.6396 6.41671C18.8632 6.55282 19.082 6.69865 19.2959 6.85421L22.7667 5.39587L25.975 10.9375L22.9709 13.2125C22.9903 13.3487 23 13.4799 23 13.6063V14.3938C23 14.5202 22.9806 14.6514 22.9417 14.7875L25.9459 17.0625L22.7375 22.6042L19.2959 21.1459C19.082 21.3014 18.8584 21.4473 18.625 21.5834C18.3917 21.7195 18.1584 21.8362 17.925 21.9334L17.4584 25.6667H11.0417ZM13.0834 23.3334H15.3875L15.7959 20.2417C16.3986 20.0862 16.9577 19.8577 17.4729 19.5563C17.9882 19.2549 18.4597 18.8903 18.8875 18.4625L21.775 19.6584L22.9125 17.675L20.4042 15.7792C20.5014 15.507 20.5695 15.2202 20.6084 14.9188C20.6472 14.6174 20.6667 14.3112 20.6667 14C20.6667 13.6889 20.6472 13.3827 20.6084 13.0813C20.5695 12.7799 20.5014 12.4931 20.4042 12.2209L22.9125 10.325L21.775 8.34171L18.8875 9.56671C18.4597 9.11949 17.9882 8.74518 17.4729 8.44379C16.9577 8.1424 16.3986 7.91393 15.7959 7.75837L15.4167 4.66671H13.1125L12.7042 7.75837C12.1014 7.91393 11.5424 8.1424 11.0271 8.44379C10.5118 8.74518 10.0403 9.10976 9.61252 9.53754L6.72502 8.34171L5.58752 10.325L8.09586 12.1917C7.99864 12.4834 7.93058 12.775 7.89169 13.0667C7.8528 13.3584 7.83336 13.6695 7.83336 14C7.83336 14.3112 7.8528 14.6125 7.89169 14.9042C7.93058 15.1959 7.99864 15.4875 8.09586 15.7792L5.58752 17.675L6.72502 19.6584L9.61252 18.4334C10.0403 18.8806 10.5118 19.2549 11.0271 19.5563C11.5424 19.8577 12.1014 20.0862 12.7042 20.2417L13.0834 23.3334ZM14.3084 18.0834C15.4361 18.0834 16.3986 17.6848 17.1959 16.8875C17.9931 16.0903 18.3917 15.1278 18.3917 14C18.3917 12.8723 17.9931 11.9098 17.1959 11.1125C16.3986 10.3153 15.4361 9.91671 14.3084 9.91671C13.1611 9.91671 12.1938 10.3153 11.4063 11.1125C10.6188 11.9098 10.225 12.8723 10.225 14C10.225 15.1278 10.6188 16.0903 11.4063 16.8875C12.1938 17.6848 13.1611 18.0834 14.3084 18.0834Z" fill="#555"/>
</g>
</svg>
