<svg width="29" height="28" viewBox="0 0 29 28" fill="none" xmlns="http://www.w3.org/2000/svg">
<mask id="mask0_62_572" style="mask-type:alpha" maskUnits="userSpaceOnUse" x="0" y="0" width="29" height="28">
<rect x="0.25" width="28" height="28" fill="#D9D9D9"/>
</mask>
<g mask="url(#mask0_62_572)">
<path d="M7.25001 23.3333L9.00001 18.9583C9.17501 18.5111 9.45695 18.1562 9.84584 17.8937C10.2347 17.6312 10.6722 17.5 11.1583 17.5H13.0833V12.8041C10.1083 12.7069 7.61459 12.2694 5.60209 11.4916C3.58959 10.7138 2.58334 9.79996 2.58334 8.74996C2.58334 7.62218 3.72084 6.65968 5.99584 5.86246C8.27084 5.06524 11.0222 4.66663 14.25 4.66663C17.4972 4.66663 20.2535 5.06524 22.5188 5.86246C24.784 6.65968 25.9167 7.62218 25.9167 8.74996C25.9167 9.79996 24.9104 10.7138 22.8979 11.4916C20.8854 12.2694 18.3917 12.7069 15.4167 12.8041V17.5H17.3417C17.8083 17.5 18.241 17.6312 18.6396 17.8937C19.0382 18.1562 19.325 18.5111 19.5 18.9583L21.25 23.3333H18.9167L17.5167 19.8333H10.9833L9.58334 23.3333H7.25001ZM14.25 10.5C16.1361 10.5 17.9153 10.3347 19.5875 10.0041C21.2597 9.67357 22.4847 9.25552 23.2625 8.74996C22.4847 8.2444 21.2597 7.82635 19.5875 7.49579C17.9153 7.16524 16.1361 6.99996 14.25 6.99996C12.3639 6.99996 10.5847 7.16524 8.91251 7.49579C7.24029 7.82635 6.01529 8.2444 5.23751 8.74996C6.01529 9.25552 7.24029 9.67357 8.91251 10.0041C10.5847 10.3347 12.3639 10.5 14.25 10.5Z" fill="white"/>
</g>
</svg>
